<svg width="127" height="32" viewBox="0 0 127 32" fill="none" xmlns="http://www.w3.org/2000/svg">
<g id="PURA/1">
<g id="PURA">
<path d="M9.3297 0.871934H14.5613C17.0609 0.871934 19.0808 1.23524 20.6213 1.96185C22.1907 2.68846 23.3533 3.69119 24.109 4.97003C24.8937 6.2198 25.3152 7.64396 25.3733 9.24251C25.4314 10.7248 25.1844 12.0763 24.6322 13.297C24.0799 14.5177 23.3243 15.535 22.3651 16.3488C21.406 17.1626 20.3015 17.7584 19.0518 18.1362C17.8311 18.485 16.5522 18.5722 15.2153 18.3978C13.9074 18.1944 12.6285 17.6857 11.3788 16.8719V16.436C11.3788 16.436 11.5531 16.436 11.9019 16.436C12.2797 16.436 12.7448 16.3778 13.297 16.2616C13.8783 16.1453 14.4741 15.9273 15.0845 15.6076C15.7239 15.2879 16.3197 14.7938 16.8719 14.1253C17.4242 13.4569 17.8456 12.5704 18.1362 11.4659C18.2525 11.0881 18.3252 10.6667 18.3542 10.2016C18.4124 9.70754 18.4269 9.25704 18.3978 8.85014C18.3688 6.99001 17.8601 5.50772 16.8719 4.40327C15.9128 3.26975 14.5468 2.703 12.7738 2.703H9.76567C9.76567 2.703 9.72207 2.55767 9.63488 2.26703C9.57675 1.94732 9.50409 1.64214 9.4169 1.3515C9.35877 1.03179 9.3297 0.871934 9.3297 0.871934ZM9.89646 0.871934V31.3896H3.35695V0.871934H9.89646ZM3.48774 28.2071V31.3896H0V30.9537C0.0290646 30.9537 0.116258 30.9537 0.26158 30.9537C0.435968 30.9537 0.537693 30.9537 0.566758 30.9537C1.32243 30.9537 1.96185 30.6921 2.48501 30.1689C3.03724 29.6167 3.32788 28.9628 3.35695 28.2071H3.48774ZM3.48774 4.0545H3.35695C3.35695 3.29882 3.08084 2.6594 2.52861 2.13624C1.97639 1.58401 1.32243 1.3079 0.566758 1.3079C0.537693 1.3079 0.4505 1.3079 0.305177 1.3079C0.159855 1.3079 0.0726613 1.3079 0.0435968 1.3079L0 0.871934H3.48774V4.0545ZM9.76567 28.2071H9.89646C9.92553 28.9628 10.2016 29.6167 10.7248 30.1689C11.277 30.6921 11.931 30.9537 12.6867 30.9537C12.7157 30.9537 12.8029 30.9537 12.9482 30.9537C13.1226 30.9537 13.2243 30.9537 13.2534 30.9537V31.3896H9.76567V28.2071Z" fill="white"/>
<path d="M37.8529 0.871934V20.0545C37.8529 22.1181 38.1871 23.9055 38.8556 25.4169C39.5531 26.9282 40.5268 28.0908 41.7766 28.9046C43.0554 29.7184 44.5668 30.1253 46.3106 30.1253C48.0836 30.1253 49.6095 29.7475 50.8883 28.9918C52.1962 28.2071 53.1989 27.1026 53.8965 25.6785C54.594 24.2543 54.9428 22.5686 54.9428 20.6213V0.871934H58.0818V20.3597C58.0818 22.743 57.5731 24.8065 56.5559 26.5504C55.5677 28.2943 54.129 29.6458 52.2398 30.6049C50.3797 31.535 48.1272 32 45.4823 32C42.4015 32 39.8002 31.535 37.6785 30.6049C35.5568 29.6458 33.9582 28.3088 32.8828 26.594C31.8365 24.8501 31.3134 22.7866 31.3134 20.4033V0.871934H37.8529ZM31.4442 0.871934V3.48774H31.3134C31.3134 2.84832 31.0808 2.32516 30.6158 1.91825C30.1798 1.51135 29.6422 1.3079 29.0027 1.3079C29.0027 1.3079 28.8865 1.3079 28.654 1.3079C28.4214 1.3079 28.3052 1.3079 28.3052 1.3079V0.871934H31.4442ZM40.861 0.871934V1.3079C40.861 1.3079 40.7448 1.3079 40.5123 1.3079C40.2798 1.3079 40.1635 1.3079 40.1635 1.3079C39.5241 1.3079 38.9719 1.51135 38.5068 1.91825C38.0709 2.32516 37.8529 2.84832 37.8529 3.48774H37.7657V0.871934H40.861ZM55.0736 0.871934V3.48774H54.9428C54.9428 2.84832 54.7103 2.32516 54.2452 1.91825C53.8093 1.51135 53.2716 1.3079 52.6322 1.3079C52.6322 1.3079 52.5159 1.3079 52.2834 1.3079C52.0509 1.3079 51.9346 1.3079 51.9346 1.3079V0.871934H55.0736ZM61.0899 0.871934V1.3079C61.0899 1.3079 60.9737 1.3079 60.7412 1.3079C60.5086 1.3079 60.3924 1.3079 60.3924 1.3079C59.753 1.3079 59.2007 1.51135 58.7357 1.91825C58.2997 2.32516 58.0818 2.84832 58.0818 3.48774H57.9946V0.871934H61.0899Z" fill="white"/>
<path d="M73.1496 0.871934H78.7735C80.0814 0.871934 81.3603 1.01726 82.61 1.3079C83.8598 1.59855 84.9643 2.06358 85.9234 2.703C86.9116 3.34242 87.6963 4.18529 88.2776 5.23161C88.8589 6.27793 89.1496 7.5713 89.1496 9.11172C89.1496 10.3324 88.888 11.5531 88.3648 12.7738C87.8707 13.9655 87.1005 14.9973 86.0542 15.8692C85.0079 16.7121 83.6564 17.2207 81.9997 17.3951C82.9297 17.6857 83.7726 18.2089 84.5283 18.9646C85.313 19.7203 85.9525 20.4759 86.4466 21.2316C86.4756 21.2897 86.6355 21.5513 86.9261 22.0163C87.2458 22.4814 87.6237 23.0627 88.0596 23.7602C88.5247 24.4287 89.0042 25.1117 89.4983 25.8093C89.9924 26.5068 90.4429 27.1172 90.8498 27.6403C91.4892 28.4251 92.0705 29.0645 92.5937 29.5586C93.1169 30.0236 93.6691 30.3724 94.2504 30.6049C94.8317 30.8084 95.5001 30.9246 96.2558 30.9537V31.3896H91.9833C90.4139 31.3896 88.9897 31.2589 87.7109 30.9973C86.432 30.7066 85.2985 30.2271 84.3103 29.5586C83.3221 28.8901 82.4647 27.9891 81.7381 26.8556C81.5056 26.5068 81.244 26.0708 80.9534 25.5477C80.6918 24.9955 80.4157 24.4142 80.125 23.8038C79.8344 23.1935 79.5437 22.6122 79.2531 22.0599C78.9915 21.4787 78.759 20.9555 78.5555 20.4905C78.3521 20.0254 78.2068 19.6621 78.1196 19.4005C77.7417 18.4705 77.2912 17.7729 76.7681 17.3079C76.274 16.8429 75.7363 16.5668 75.155 16.4796V16.0436C75.2422 16.0436 75.4166 16.0436 75.6782 16.0436C75.9397 16.0436 76.2159 16.0436 76.5065 16.0436C77.2912 16.0436 78.0469 15.8837 78.7735 15.564C79.5292 15.2443 80.1977 14.7212 80.779 13.9945C81.3603 13.2679 81.7672 12.2652 81.9997 10.9864C82.0578 10.7248 82.1014 10.4196 82.1305 10.0708C82.1886 9.72207 82.2031 9.3297 82.1741 8.89373C82.0869 6.80109 81.5637 5.2752 80.6046 4.31607C79.6455 3.32788 78.4538 2.81926 77.0297 2.79019C76.6227 2.76113 76.1722 2.76113 75.6782 2.79019C75.2131 2.79019 74.7772 2.79019 74.3703 2.79019C73.9924 2.79019 73.7308 2.79019 73.5855 2.79019C73.5855 2.76113 73.5419 2.60127 73.4547 2.31063C73.3966 1.99092 73.3239 1.67121 73.2367 1.3515C73.1786 1.03179 73.1496 0.871934 73.1496 0.871934ZM73.7163 0.871934V31.3896H67.1768V0.871934H73.7163ZM67.3076 28.2071V31.3896H63.8198V30.9537C63.8489 30.9537 63.9361 30.9537 64.0814 30.9537C64.2558 30.9537 64.3575 30.9537 64.3866 30.9537C65.1423 30.9537 65.7817 30.6921 66.3049 30.1689C66.8571 29.6167 67.1477 28.9628 67.1768 28.2071H67.3076ZM67.3076 4.0545H67.1768C67.1477 3.29882 66.8571 2.6594 66.3049 2.13624C65.7817 1.58401 65.1423 1.3079 64.3866 1.3079C64.3575 1.3079 64.2558 1.3079 64.0814 1.3079C63.9361 1.3079 63.8489 1.3079 63.8198 1.3079V0.871934H67.3076V4.0545ZM73.5855 28.2071H73.7163C73.7163 28.9628 73.9924 29.6167 74.5446 30.1689C75.0969 30.6921 75.7508 30.9537 76.5065 30.9537C76.5646 30.9537 76.6664 30.9537 76.8117 30.9537C76.957 30.9537 77.0297 30.9537 77.0297 30.9537V31.3896H73.5855V28.2071Z" fill="white"/>
<path d="M109.35 0L123.606 31.1281H115.759L106.691 8.41417L109.35 0ZM99.9769 28.2071C99.7444 28.7884 99.7008 29.2825 99.8461 29.6894C99.9914 30.0963 100.238 30.416 100.587 30.6485C100.936 30.852 101.285 30.9537 101.634 30.9537H102.026V31.3896H92.6962V30.9537C92.6962 30.9537 92.7689 30.9537 92.9142 30.9537C93.0304 30.9537 93.0886 30.9537 93.0886 30.9537C93.7571 30.9537 94.4401 30.7502 95.1376 30.3433C95.8642 29.9074 96.4601 29.1953 96.9251 28.2071H99.9769ZM109.35 0L109.525 5.3188L98.7126 31.2589H95.53L106.822 5.71117C106.909 5.53678 107.054 5.21708 107.258 4.75204C107.49 4.25795 107.723 3.70572 107.955 3.09537C108.217 2.48501 108.449 1.90372 108.653 1.3515C108.856 0.770208 108.958 0.319709 108.958 0H109.35ZM113.928 21.0136V22.8447H101.11V21.0136H113.928ZM114.582 28.2071H122.211C122.705 29.1953 123.301 29.9074 123.999 30.3433C124.696 30.7502 125.379 30.9537 126.048 30.9537C126.048 30.9537 126.106 30.9537 126.222 30.9537C126.338 30.9537 126.396 30.9537 126.396 30.9537V31.3896H112.533V30.9537H112.925C113.506 30.9537 114.015 30.7212 114.451 30.2561C114.887 29.762 114.931 29.079 114.582 28.2071Z" fill="white"/>
</g>
</g>
</svg>
