<svg xmlns="http://www.w3.org/2000/svg" width="131" height="10" viewBox="0 0 131 10" fill="none"><path d="M86.2506 0.348427C88.0391 0.287588 94.3831 0.211265 98.4459 0.122772C107.85 -0.0708046 117.273 -0.0796547 126.64 0.423645C128.103 0.502182 130.596 0.536473 130.497 1.78643C130.394 3.08837 128.712 3.82838 126.18 3.75095C124.646 3.69897 123.112 3.64587 121.576 3.59388C120.04 3.54742 118.502 3.50096 116.964 3.46557C113.891 3.38261 110.819 3.39699 107.766 3.52087C98.8395 3.9202 89.9216 3.9213 81.0123 4.2797C73.0174 4.61154 65.0155 4.91242 57.0432 5.42678C55.1729 5.5573 53.3043 5.70221 51.4392 5.85154C50.5058 5.92787 49.5724 5.99866 48.6407 6.08273L45.8474 6.33493L40.2609 6.82827C38.3993 6.99752 36.5377 7.1568 34.6709 7.29728C33.06 7.41343 31.4492 7.534 29.8349 7.63687C28.2206 7.74085 26.6028 7.83266 24.985 7.92115L20.1351 8.22424C18.519 8.32932 16.9012 8.42888 15.2904 8.56936C13.7736 8.69546 12.013 9.10806 10.3534 9.25628C8.9794 9.37021 6.70334 9.61799 5.31889 9.65781C4.72158 9.67551 4.09988 9.68326 3.53914 9.79166C0.968774 10.2894 0.146814 9.91997 0.632676 8.4156C0.740645 8.08486 0.401064 7.70435 0.982706 7.42228C1.00709 7.41011 1.0541 7.38688 1.075 7.37361C2.77813 6.30728 4.88353 6.48426 6.88271 6.24533C16.7166 5.10046 26.6185 4.18235 36.5394 3.37707C38.0615 3.2554 39.5835 3.1293 41.109 3.02089L45.6855 2.6979C48.733 2.4656 51.784 2.2676 54.8211 1.99438C56.4824 1.84063 58.1316 1.57073 59.8434 1.58953L59.8138 1.59064C61.5796 1.45458 63.3402 1.27428 65.113 1.188C71.821 0.890442 78.8233 0.486696 85.2806 0.429176C85.5383 0.424751 85.8762 0.357276 86.2506 0.348427Z" fill="#101996"></path></svg>