<svg xmlns="http://www.w3.org/2000/svg" width="59" height="59" viewBox="0 0 59 59" fill="none"><g id="icon/24/insta" clip-path="url(#clip0_10607_17290)"><path id="Vector" d="M26.2041 9.54194C28.3792 8.96299 29.484 8.67927 30.4436 8.45252L30.8219 8.36431C31.2591 8.26366 31.6916 8.16847 32.2133 8.05457C34.2945 7.59872 35.7839 7.54817 37.1436 7.69631C38.5484 7.84614 39.8016 8.22125 41.1631 9.00733C42.523 9.79382 43.4754 10.6947 44.3084 11.8329C45.1143 12.9352 45.8158 14.2518 46.4632 16.2818C46.6243 16.7907 46.7573 17.2131 46.8886 17.6422L47.0013 18.0139C47.2845 18.9583 47.5927 20.0567 48.1793 22.2297L48.5669 23.6699C48.6142 23.8458 48.6629 24.0274 48.7131 24.2148L48.8589 24.7598L49.2438 26.2007C49.8227 28.3758 50.1065 29.4806 50.3332 30.4402L50.4213 30.8185C50.5221 31.2557 50.6173 31.6882 50.7312 32.2099C51.1869 34.2911 51.2358 35.781 51.0894 37.1402C50.9395 38.545 50.5627 39.7987 49.7783 41.1597C48.9918 42.5196 48.0893 43.4724 46.9528 44.3049C45.8489 45.1113 44.5338 45.8124 42.504 46.4598C41.9949 46.6209 41.5726 46.7539 41.1435 46.8852L40.7718 46.9979C39.8274 47.2812 38.7291 47.5893 36.5561 48.1759L35.1159 48.5635C34.94 48.6108 34.7584 48.6595 34.571 48.7097L34.026 48.8555L32.5851 49.2404C30.41 49.8192 29.305 50.1031 28.3455 50.3298L27.9673 50.4179C27.5299 50.5187 27.0974 50.6139 26.5758 50.7278C24.4945 51.1836 23.0064 51.232 21.6456 51.086C20.2422 50.9357 18.987 50.5594 17.6259 49.7749C16.2644 48.9889 15.3133 48.0859 14.4808 46.9494C13.6727 45.846 12.9733 44.5304 12.3259 42.5006C12.1649 41.9915 12.0317 41.5692 11.9005 41.1401L11.7878 40.7684C11.5045 39.824 11.1964 38.7257 10.6097 36.5527L9.54537 32.5816C8.96641 30.4066 8.68266 29.3016 8.45593 28.3421L8.36773 27.9639C8.26705 27.5265 8.17187 27.094 8.05798 26.5724C7.60167 24.4895 7.55159 23.0018 7.69973 21.6421C7.84994 20.2388 8.22464 18.984 9.01071 17.6225C9.79677 16.261 10.6981 15.3104 11.8363 14.4774C12.9397 13.6693 14.2536 12.9704 16.2852 12.3225C16.7942 12.1615 17.2165 12.0283 17.6456 11.8971L18.0173 11.7844C18.9617 11.5011 20.0601 11.193 22.2331 10.6063L26.2041 9.54194ZM26.8064 19.7319C21.4688 21.1621 18.3064 26.6465 19.7353 31.9794C21.1655 37.3169 26.6499 40.4794 31.9828 39.0504C37.3203 37.6202 40.4827 32.1357 39.0539 26.803C37.6237 21.4654 32.1391 18.303 26.8064 19.7319ZM27.8417 23.5956C31.0426 22.7379 34.3322 24.6364 35.1902 27.8383C36.0478 31.0391 34.1492 34.3288 30.9475 35.1867C27.7466 36.0444 24.4569 34.1458 23.599 30.9441C22.7413 27.7432 24.6398 24.4535 27.8417 23.5956ZM36.1722 14.1165C34.8405 14.4733 34.0472 15.8452 34.404 17.1767C34.7607 18.5082 36.1327 19.3017 37.4658 18.9445C38.7973 18.5878 39.5908 17.2158 39.2336 15.8826C38.8768 14.5511 37.5014 13.7585 36.1722 14.1165Z" fill="#101996"></path></g><defs><clipPath id="clip0_10607_17290"><rect width="48" height="48" fill="white" transform="translate(0 12.4219) rotate(-15)"></rect></clipPath></defs></svg>